<?xml version="1.0" encoding="utf-8"?>
<!-- Generator: Adobe Illustrator 15.0.0, SVG Export Plug-In  -->
<!DOCTYPE svg PUBLIC "-//W3C//DTD SVG 1.1//EN" "http://www.w3.org/Graphics/SVG/1.1/DTD/svg11.dtd" [
	<!ENTITY ns_flows "http://ns.adobe.com/Flows/1.0/">
]>
<svg version="1.1"
	 xmlns="http://www.w3.org/2000/svg" xmlns:xlink="http://www.w3.org/1999/xlink" xmlns:a="http://ns.adobe.com/AdobeSVGViewerExtensions/3.0/"
	 x="0px" y="0px" width="14px" height="16px" viewBox="0 0 14 16" overflow="visible" enable-background="new 0 0 14 16"
	 xml:space="preserve">
<defs>
</defs>
<path fill="#999999" d="M9.451,9.695h-1.39v1.389h1.39V9.695z M7.494,5.976h-1.39v1.391h1.39V5.976z M9.451,7.836h-1.39v1.389h1.39
	V7.836z M11.41,5.976h-1.39v1.391h1.39V5.976z M7.494,7.836h-1.39v1.389h1.39V7.836z M9.451,5.976h-1.39v1.391h1.39V5.976z
	 M11.41,7.836h-1.39v1.389h1.39V7.836z M3.578,9.695h-1.39v1.389h1.39V9.695z M3.578,7.836h-1.39v1.389h1.39V7.836z M11.051,1.077
	v0.61c0.24,0.212,0.394,0.521,0.394,0.866c0,0.639-0.521,1.158-1.159,1.158S9.129,3.192,9.129,2.553c0-0.345,0.15-0.654,0.392-0.866
	v-0.61H4.111v0.61c0.24,0.212,0.393,0.521,0.393,0.866c0,0.639-0.52,1.158-1.158,1.158c-0.641,0-1.159-0.519-1.159-1.158
	c0-0.345,0.153-0.654,0.394-0.866v-0.61H0v12.318h13.526V1.077H11.051z M12.291,12.159H1.234V4.464h11.057V12.159z M5.538,5.976
	H4.146v1.391h1.392V5.976z M5.538,9.695H4.146v1.389h1.392V9.695z M7.494,9.695h-1.39v1.389h1.39V9.695z M5.538,7.836H4.146v1.389
	h1.392V7.836z M3.346,3.228c0.318,0,0.575-0.257,0.575-0.575V0.576C3.921,0.258,3.664,0,3.346,0C3.026,0,2.77,0.258,2.77,0.576
	v2.076C2.77,2.97,3.026,3.228,3.346,3.228z M10.285,3.228c0.318,0,0.576-0.257,0.576-0.575V0.576C10.861,0.258,10.604,0,10.285,0
	S9.71,0.258,9.71,0.576v2.076C9.71,2.97,9.967,3.228,10.285,3.228z"/>
</svg>
